<svg xmlns="http://www.w3.org/2000/svg" xmlns:xlink="http://www.w3.org/1999/xlink" viewBox="0 0 1809.65 1171.42"><defs><style>.cls-1{fill:none;}.cls-2{isolation:isolate;}.cls-3{fill:#fee4cb;}.cls-4{clip-path:url(#clip-path);}.cls-28,.cls-5,.cls-6,.cls-8{fill:#fff;}.cls-5{opacity:0.5;}.cls-6{opacity:0.4;}.cls-7{fill:#feb546;}.cls-8{opacity:0.52;mix-blend-mode:color-dodge;}.cls-9{fill:#e03268;}.cls-10{fill:#ff5b7e;}.cls-11{fill:#07085b;}.cls-12{fill:#55769f;}.cls-13,.cls-27{fill:#02ccc0;}.cls-14{fill:#00b0a5;}.cls-15{fill:#008c83;}.cls-16{fill:#e6e6e6;}.cls-16,.cls-27{mix-blend-mode:multiply;}.cls-17{fill:#e8486a;}.cls-18{fill:#c23c59;}.cls-19{fill:#eba741;}.cls-20{fill:#b88233;}.cls-21{fill:#ffc0bb;}.cls-22{fill:#f46c0f;}.cls-23{opacity:0.6;}.cls-24{fill:#fc8d84;}.cls-25{fill:#333;}.cls-26{fill:#f99893;}.cls-27{opacity:0.3;}</style><clipPath id="clip-path" transform="translate(-687.3 -662.96)"><path class="cls-1" d="M2232.1,1305c-109.41-137.26,41-136.5,99.54-241.41,14.09-15.58,37.39-46.37,44.07-80.21,5.86-29.62,10.44-75.42-.95-125.39-12.31-54-47.24-126.19-143.74-163.6-46-17.83-101.24-28.28-164.25-31-50.09-2.21-105.21.5-163.85,7.75-93.27,11.54-173.35,34.6-239.45,64.29-18.78-15.79-42-29.92-70.52-41-46-17.83-101.24-28.28-164.24-31-50.1-2.21-105.22.5-163.86,7.75C1128.07,688,1019.64,729.73,942.09,780.8a250.86,250.86,0,0,0-44.86-4C788.86,776.79,701,845,701,929.17c0,60.14,44.88,112.14,110.06,136.92,4.32,39.2,9.15,88.37,12.66,139.16,4.65,67.29,2.92,126.4-5.13,175.68-9.88,60.45-50.47,142.11-50.47,142.11-90.46,134.85-45,273.53-29.08,311H2439.47C2484.09,1722.75,2378.73,1489,2232.1,1305ZM818,1463.55l-1.41,1.39q14.48-35.13,22-80.88c8.3-50.86,10.08-111.58,5.3-180.49-2.38-34.37-5.37-68-8.41-98.38C879.27,1217,935.93,1348.31,818,1463.55ZM1821.49,706.91a732.09,732.09,0,0,1,84.26-15.76c90-11.26,218.24-16.55,318,22.13,88.23,34.22,120.13,100,131.34,149.24,8.35,36.63,5.51,73.39-2,104.94q-.27-9.18-1.25-19C2328.61,717.58,2030,705.66,2030,705.66,1949.85,702.81,1880.9,703.38,1821.49,706.91Z"/></clipPath></defs><g class="cls-2"><g id="Layer_1" data-name="Layer 1"><path class="cls-3" d="M2233.51,1305.37c-109.41-137.26,41-136.5,99.54-241.4,14.09-15.59,37.39-46.38,44.07-80.22,5.86-29.62,10.44-75.41-.95-125.39-12.31-54-47.24-126.18-143.74-163.6-46-17.83-101.24-28.28-164.25-31-50.09-2.2-105.21.5-163.85,7.75-93.27,11.54-173.35,34.6-239.45,64.29-18.79-15.79-42-29.92-70.52-41-46-17.83-101.24-28.28-164.25-31-50.09-2.2-105.21.5-163.85,7.75-136.78,16.93-245.21,58.62-322.76,109.69a250.86,250.86,0,0,0-44.86-4c-108.37,0-196.23,68.22-196.23,152.38,0,60.15,44.88,112.15,110.05,136.93,4.33,39.19,9.16,88.37,12.67,139.15,4.65,67.3,2.92,126.4-5.13,175.68-9.88,60.45-50.47,142.11-50.47,142.11-90.46,134.85-45,273.54-29.08,311H2440.88C2485.5,1723.1,2380.14,1489.31,2233.51,1305.37ZM819.37,1463.9c-.48.46-.94.93-1.41,1.39q14.47-35.11,22-80.87c8.3-50.86,10.08-111.59,5.3-180.5-2.38-34.37-5.37-68-8.41-98.38C880.68,1217.39,937.34,1348.66,819.37,1463.9ZM1822.9,707.27a732,732,0,0,1,84.26-15.77c90-11.25,218.24-16.55,318,22.14,88.23,34.21,120.12,100,131.34,149.23,8.35,36.63,5.51,73.39-2,104.94q-.27-9.18-1.25-19C2330,717.94,2031.36,706,2031.36,706,1951.26,703.16,1882.31,703.73,1822.9,707.27Z" transform="translate(-687.3 -662.96)"/><g class="cls-4"><path class="cls-5" d="M1882.61,1357.77c-2.61-12.48-12.79-21.79-24.95-21.79a23.52,23.52,0,0,0-6.47.91c-6-14.09-19-23.85-34.15-23.85a34.59,34.59,0,0,0-11.21,1.86c-8.14-14.78-22.92-24.66-39.8-24.66-20.09,0-37.2,14-43.68,33.57a29.53,29.53,0,0,0-15.5-4.41c-17.61,0-31.88,15.66-31.88,35q0,1.71.15,3.39Z" transform="translate(-687.3 -662.96)"/><path class="cls-5" d="M1071.34,1124.39c-2.61-12.48-12.79-21.79-24.95-21.79a23.9,23.9,0,0,0-6.47.9c-6-14.08-19-23.84-34.14-23.84a34.61,34.61,0,0,0-11.22,1.86c-8.14-14.78-22.92-24.66-39.8-24.66-20.09,0-37.2,14-43.68,33.57a29.53,29.53,0,0,0-15.5-4.41c-17.61,0-31.88,15.66-31.88,35,0,1.15,0,2.28.15,3.4Z" transform="translate(-687.3 -662.96)"/><path class="cls-5" d="M1433.05,1502.9c-2.61-12.48-12.79-21.79-25-21.79a23.45,23.45,0,0,0-6.46.91c-6-14.09-19-23.85-34.15-23.85a34.7,34.7,0,0,0-11.22,1.86c-8.13-14.77-22.91-24.66-39.79-24.66-20.09,0-37.2,14-43.68,33.57a29.65,29.65,0,0,0-15.5-4.41c-17.61,0-31.89,15.66-31.89,35,0,1.14.06,2.27.16,3.39Z" transform="translate(-687.3 -662.96)"/><path class="cls-5" d="M2297.45,943.8c-1.3-6.23-6.39-10.88-12.47-10.88a11.94,11.94,0,0,0-3.23.45c-3-7-9.51-11.91-17.06-11.91a17.13,17.13,0,0,0-5.6.93c-4.07-7.38-11.45-12.32-19.88-12.32-10,0-18.59,7-21.83,16.77a14.78,14.78,0,0,0-7.74-2.21c-8.8,0-15.93,7.83-15.93,17.48,0,.57,0,1.14.08,1.69Z" transform="translate(-687.3 -662.96)"/><path class="cls-5" d="M2036.46,858.94c3.18-15.22,15.6-26.58,30.45-26.58a28.7,28.7,0,0,1,7.89,1.1c7.32-17.19,23.22-29.1,41.66-29.1a42.14,42.14,0,0,1,13.69,2.28c9.93-18,28-30.09,48.56-30.09,24.51,0,45.39,17.06,53.3,41a36.1,36.1,0,0,1,18.91-5.38c21.48,0,38.9,19.11,38.9,42.68,0,1.4-.07,2.78-.19,4.14Z" transform="translate(-687.3 -662.96)"/><path class="cls-5" d="M1142.93,930.35c4.69-22.39,23-39.1,44.78-39.1a42.18,42.18,0,0,1,11.61,1.63c10.77-25.28,34.15-42.79,61.27-42.79a62.07,62.07,0,0,1,20.12,3.34c14.6-26.52,41.12-44.25,71.42-44.25,36,0,66.74,25.1,78.37,60.23a53.14,53.14,0,0,1,27.81-7.91c31.6,0,57.21,28.09,57.21,62.76,0,2-.1,4.08-.27,6.09Z" transform="translate(-687.3 -662.96)"/><path class="cls-6" d="M2237.4,1073.11c-3.16,5.83-4.85,12.53-8.28,18.17-3.95,6.5-9.92,11.15-15.76,15.64-26,20-53,40.55-84,48.1-7.79,1.89-16,3.07-22.6,8.08-13.52,10.37-12.22,36.68,2.24,45.38,16.56,10,41.5-1.7,53.68,14.12,4.95,6.43,5.91,15.69,10.76,22.21,6.49,8.71,17.91,10.22,28.15,11q10.5.75,21,1.31c-31.29-76.95,42.32-97,93.87-156.47-1.47-.22-2.94-.46-4.41-.73-2.78-.51-5.69-1.17-7.8-3.21s-3-5.91-1.18-8.25c10.21-4.78,20.6-9.6,31.4-12.06,2.54-4.07,5-8.31,7.22-12.75a224.21,224.21,0,0,0,17-23.53c-22.86,1.19-45.65,3.12-68.39,6.14C2270.26,1048.88,2247.71,1054.11,2237.4,1073.11Z" transform="translate(-687.3 -662.96)"/></g><path class="cls-7" d="M848.75,1817.59s144-59,114.88-101.07c0,0-.46-15.06-54.62,7.61,0,0-21.82-4.54-10.32-25.09s60.58-34.21,52.33-62.21-37.69-2.35-54.89-3.95,39.2-77.7,25.87-96.68-38.15,9.6-50.91,7.43,14.58-112.25-46.26-122.92-25.53,56-15,90.88-31.51-4.76-53.95,19.85,79.87,51.81,55.08,74.08-40.57-7.11-57.83,10.23c-27.9,28,79.17,45.88,63.24,67-12.71,16.85-37.15-12.54-49.14-.72S779.36,1773.67,848.75,1817.59Z" transform="translate(-687.3 -662.96)"/><path class="cls-8" d="M965.45,1719.61c-.21-.44-.45-.87-.69-1.31-4.17,3.4-8.94,7-14.24,10.55-19.48,13.05-50.39,28.08-87.32,26a467.57,467.57,0,0,0,2.29-61.26c32.86-36.16,62-50.33,80.71-55.85,1.62-.47,3.18-.89,4.7-1.26-.14-.47-.29-.93-.45-1.37-1.48.37-3,.78-4.57,1.24-18.7,5.49-47.74,19.53-80.44,55.12v-.27c-.63-22.6-2.59-46.84-5.86-72.49a331.17,331.17,0,0,1,22-40.63c9.3-14.59,22.52-32.41,37.89-44.75-.37-.34-.75-.65-1.14-1-15.46,12.46-28.71,30.33-38.05,45a339.63,339.63,0,0,0-21.09,38.54q-3.84-29.31-9.92-61a1330.62,1330.62,0,0,0-33.76-135.25c-.54,0-1.06,0-1.58-.05a1331.58,1331.58,0,0,1,33.86,135.56c1.91,9.93,3.77,20.36,5.52,31.15a365,365,0,0,0-36-25.19c-15.51-9.56-37.19-21.35-61.34-29.84l-.17.18c-.3.33-.57.66-.83,1,24.21,8.45,46,20.27,61.49,29.85a349,349,0,0,1,37.17,26.18c3.82,23.93,7,49.6,8.82,75.57-28.5-20.79-83.77-38.15-111.41-46-.31.41-.59.83-.85,1.24,27.74,7.83,84.28,25.53,112.39,46.64,2.45,37,2,74.46-3.66,108.4-28.23-10.43-52-38.27-67.08-59.92a335.69,335.69,0,0,1-21-34.69,8.76,8.76,0,0,0-1.37.6,338.57,338.57,0,0,0,21.11,34.85c15.23,21.91,39.36,50.12,68.11,60.6a246,246,0,0,1-10.63,41.39l.65.42.93-.39c6.33-17.74,10.8-38.12,13.37-61q3.6.21,7.23.21a132.64,132.64,0,0,0,42.17-7,164.24,164.24,0,0,0,39-19.43C956.64,1726.5,961.33,1723,965.45,1719.61Z" transform="translate(-687.3 -662.96)"/><path class="cls-9" d="M2232.74,1761s-20.79-101.89,66.85-202.87l11.6,36.46-.6-46s53.47-56.67,101.72-86.92c0,0-22,122.79-35.59,148.13l-33.06,23.26,36.15.3s-10.64,68.61-56.4,114.56S2232.74,1761,2232.74,1761Z" transform="translate(-687.3 -662.96)"/><path class="cls-7" d="M2332.8,1332.17c-39.36.4-19.36,56.43-13.36,71.3a242.9,242.9,0,0,0-28.19,27.51c.32-19.48,13.21-33.42,9.62-45.68-4-13.75-17.39-25.47-29.41-2.13-9.52,18.49,8.76,42.29,16.77,51.37a213.19,213.19,0,0,0-27.68,42.3c-2.94-22.51,10.11-40.3,4.49-53.8-6.14-14.77-22.2-26-32.34,1.57-8.37,22.82,17,48,26,56.07a123,123,0,0,0-7,18.21,393.29,393.29,0,0,0-9.11,40.68c-3-19.77,4.93-37.19-1.76-48.8-8-13.93-25.27-22.91-31.39,6.24-4.85,23.06,20.81,43.85,31.75,51.53A382,382,0,0,0,2238,1626c-9-16.59-10.43-46-23.68-58.6-8.69-8.25-16.59-6.81-21.71-4.11a15.32,15.32,0,0,0-7.95,11.69c-4,28.89,40.09,49.79,53.62,55.48a383.5,383.5,0,0,0,13.17,76.1c-4.73-8.54-11.8-21.47-15.2-28.33-5.34-10.82-17.87-23-28.84-24.45-.45-.06-.9-.1-1.33-.13-8.34-.54-15,5.63-16.17,13.95-4.6,32.56,51.68,44.71,63.87,47,0,.14.08.29.13.44,16.17,53,38,84.16,38.93,85.46l4.4-3.07c-.22-.31-21-30-36.7-79.38,40.09-30.78,35.46-64.72,23.41-71.23-12.46-6.74-31.63-.54-27.33,23.39,2.5,13.88,2,28.78,1.18,38.85a377.52,377.52,0,0,1-13.9-77.56c65.34-19.26,46.35-60.83,29.24-63-17.33-2.23-23.25,8.91-23.4,29a81.87,81.87,0,0,1-6.11,30.08,377.08,377.08,0,0,1,2.93-76c12,4.32,43.47,13.21,56.52-5.89,16.31-23.88-1-32.76-15.78-30.66-13.62,1.93-20.71,23.57-40.17,32.6a388.08,388.08,0,0,1,10-46.64c.07-.26,3.86-14.08,15.25-33.53,11.68,5.84,41.89,18.44,57.27,1.49,19.32-21.28,3.08-32.25-12-32.11-13.5.12-23.12,19.23-42.54,26.14a227.92,227.92,0,0,1,47.46-54.31c12.15,6,41.49,17.75,56.57,1.14,19.32-21.28,3.08-32.25-12.05-32.11-13.68.12-23.37,19.78-43.35,26.43l-.39-.48c4.36-6.48,13.67-20.2,18.47-26.5,6.42-8.4,10.08-23.53,5.32-33.58A19.91,19.91,0,0,0,2332.8,1332.17Z" transform="translate(-687.3 -662.96)"/><path class="cls-10" d="M866.24,1808.94s11.46-91.46-72.81-174l-7.78,33-2.58-40.61s-51.08-46-95.77-69.09c0,0,27.79,106.7,41.49,128l30.78,18-31.91,3s14.05,59.75,57.59,96.87S866.24,1808.94,866.24,1808.94Z" transform="translate(-687.3 -662.96)"/><path class="cls-11" d="M2483.43,1578.46c-.37,35.88-9.39,65.62-23.69,90.27-16-1.58-35.08-3.09-35.08-3.09l24.31,19.45c-64.66,87.24-197.73,100.32-197.73,100.32-.58-78.86,22.59-128.5,54.49-159.53,10.43,4.52,25.85,11.4,25.85,11.4l-15.1-20.92a171.62,171.62,0,0,1,54.31-29c7.77,10.92,16.9,23.12,16.9,23.12l1.29-28.22C2439,1570.57,2483.43,1578.46,2483.43,1578.46Z" transform="translate(-687.3 -662.96)"/><path class="cls-12" d="M2305.73,1625.88c10.43,4.52,25.85,11.4,25.85,11.4l-15.1-20.92a171.62,171.62,0,0,1,54.31-29c7.77,10.92,16.9,23.12,16.9,23.12l1.29-28.22c50-11.67,94.45-3.78,94.45-3.78-66.19,108.47-232.19,207-232.19,207C2250.66,1706.55,2273.83,1656.91,2305.73,1625.88Z" transform="translate(-687.3 -662.96)"/><path class="cls-10" d="M2497,1709.15a158,158,0,0,0-63-8.14c-4.45,7.85-10,17.13-10,17.13l-3.62-15.56c-75,11.74-128,71.41-128,71.41,47.82,17.1,85.88,16.81,115.57,8.45.77-5.85,1.79-14.56,1.79-14.56l7.64,11.55a139.86,139.86,0,0,0,36-19.3c-4-6-8.36-12.87-8.36-12.87l17.62,5.42C2486.72,1731.69,2497,1709.15,2497,1709.15Z" transform="translate(-687.3 -662.96)"/><path class="cls-9" d="M2408,1782.44c.77-5.85,1.79-14.56,1.79-14.56l7.64,11.55a139.86,139.86,0,0,0,36-19.3c-4-6-8.36-12.87-8.36-12.87l17.62,5.42c24-21,34.24-43.53,34.24-43.53-88.43,7.93-204.53,64.84-204.53,64.84C2340.24,1791.09,2378.3,1790.8,2408,1782.44Z" transform="translate(-687.3 -662.96)"/><path class="cls-13" d="M712.61,1824.65s9.75-47.4,104.76-52,104.76,28.42,246.07,14.46,212.61-69.45,435.11-61.18,189,52.41,411.69,56.77,256.75-32.15,375-19.59,164.63,64.19,164.63,64.19h-36.68Z" transform="translate(-687.3 -662.96)"/><path class="cls-11" d="M2462,1834H698.44a5.1,5.1,0,0,1-5.12-5.08h0a5.09,5.09,0,0,1,5.12-5.07H2462a5.09,5.09,0,0,1,5.12,5.07h0A5.1,5.1,0,0,1,2462,1834Z" transform="translate(-687.3 -662.96)"/><path class="cls-13" d="M1354.21,1261.47c10.16-38.83,33.37-66.42,51.84-61.61s25.21,40.19,15,79c-1.4,5.36,2.29,5.6,3.51.91,11.23-42.92,3.78-82-16.63-87.33s-46,25.17-57.28,68.09C1349.42,1265.47,1352.81,1266.84,1354.21,1261.47Z" transform="translate(-687.3 -662.96)"/><polygon class="cls-14" points="775.45 795.59 733.47 826.08 615.24 592.66 633.53 562.58 793.82 605.03 775.45 795.59"/><polygon class="cls-13" points="733.47 826.08 548.79 778 615.01 570.25 777.42 612.53 733.47 826.08"/><polygon class="cls-15" points="793.82 605.03 633.53 562.58 642.64 570.33 615.01 570.25 777.42 612.53 781.81 607.14 793.82 605.03"/><path class="cls-13" d="M1342.54,1263.39c11-42,36.06-71.81,56-66.61s27.25,43.45,16.27,85.44c-1.51,5.8,2.47,6,3.8,1,12.13-46.4,4.08-88.66-18-94.41s-49.79,27.21-61.92,73.6C1337.35,1267.71,1341,1269.19,1342.54,1263.39Z" transform="translate(-687.3 -662.96)"/><polygon class="cls-16" points="781.81 607.14 741.93 784.96 775.45 795.59 793.82 605.03 781.81 607.14"/><path class="cls-10" d="M1347,1250.32c18.64-35.56,47.45-57.22,64.37-48.38s15.52,44.83-3.11,80.39c-2.58,4.91,1,6,3.21,1.68,20.59-39.29,22.13-79.06,3.44-88.83s-50.53,14.17-71.12,53.46C1341.39,1253.13,1344.39,1255.23,1347,1250.32Z" transform="translate(-687.3 -662.96)"/><polygon class="cls-17" points="721.07 803.8 673.31 824.06 610.63 570.03 635.22 544.83 781.85 622.26 721.07 803.8"/><polygon class="cls-10" points="673.31 824.06 504.18 735.66 615.45 548.14 764.17 625.88 673.31 824.06"/><polygon class="cls-18" points="781.85 622.26 635.22 544.83 642.35 554.43 615.45 548.14 764.17 625.88 769.67 621.62 781.85 622.26"/><path class="cls-10" d="M1335.15,1249.56c20.14-38.44,51.3-61.85,69.58-52.3s16.78,48.47-3.36,86.91c-2.78,5.31,1,6.45,3.47,1.81,22.26-42.47,23.93-85.46,3.72-96s-54.63,15.31-76.89,57.78C1329.13,1252.6,1332.37,1254.87,1335.15,1249.56Z" transform="translate(-687.3 -662.96)"/><polygon class="cls-16" points="769.67 621.62 690.8 785.9 721.07 803.8 781.85 622.26 769.67 621.62"/><path class="cls-7" d="M1355,1219.83c18.82-19.34,41.54-27.78,50.75-18.84s1.42,31.86-17.4,51.21c-2.6,2.67-.52,4,1.75,1.7,20.79-21.38,29.4-46.71,19.23-56.59s-35.28-.55-56.08,20.83C1350.87,1220.58,1352.4,1222.51,1355,1219.83Z" transform="translate(-687.3 -662.96)"/><polygon class="cls-19" points="665.82 708.12 631.16 712.03 639.42 536.32 660.1 524.79 739.76 602.77 665.82 708.12"/><polygon class="cls-7" points="631.16 712.03 539.09 622.67 646.72 523.13 727.68 601.72 631.16 712.03"/><polygon class="cls-20" points="739.76 602.77 660.1 524.79 662.85 532.34 646.72 523.13 727.68 601.72 732.03 600.02 739.76 602.77"/><path class="cls-7" d="M1347.54,1217.08c20.34-20.91,44.9-30,54.86-20.37s1.53,34.45-18.82,55.36c-2.81,2.89-.56,4.36,1.89,1.84,22.49-23.11,31.79-50.5,20.79-61.18s-38.13-.59-60.62,22.52C1343.07,1217.89,1344.73,1220,1347.54,1217.08Z" transform="translate(-687.3 -662.96)"/><polygon class="cls-16" points="732.03 600.02 649.74 690.79 665.82 708.12 739.76 602.77 732.03 600.02"/><path class="cls-21" d="M1412.29,1213.89c-1,.07-2.07-.79-2.83-.23-5.91,4.39-9.87,5.46-10.89,4.4-1.21-1.27-.58-2.81-1.15-3.71-1.14-1.79-2.5-.2-4.38-1.82-1.06-.92-.47-2.37-.86-3.4s-1.12-1.63-2.72-2.17-1-2.55-1.18-3.93-1.78-1-2.46-2c-1.26-1.84-.37-6.3,13-15.51l11.86-7.88,11.85-1,5.21,14s-3,3.94-5.15,11.7C1421,1208.22,1418.3,1213.4,1412.29,1213.89Z" transform="translate(-687.3 -662.96)"/><path class="cls-21" d="M1578.55,1397.94l-125.67,371.58s-43.15,37.34-41.27,15.55c.43-5.07,6.8-41.1,7.35-47.75,4.55-55.93,17-165.64,27-203.29,10.8-40.73,36.44-108.39,36.44-108.39Z" transform="translate(-687.3 -662.96)"/><path class="cls-21" d="M1491.4,1798.56l-39.23-32.6-40.3,17.18,11.66,11.06,44.13,12.71s17.88.24,18.73-.17S1491.4,1798.56,1491.4,1798.56Z" transform="translate(-687.3 -662.96)"/><path class="cls-11" d="M1491.4,1798.56l9.91,8.55a6,6,0,0,1-4.72,10.56l-82.53-11.27a5.33,5.33,0,0,1-4.55-6l2.36-17.26C1464.44,1808.14,1484.15,1805.42,1491.4,1798.56Z" transform="translate(-687.3 -662.96)"/><path class="cls-21" d="M1702.17,1234.9s60.52,192.17,52.44,218.8c-5.17,17-101.61,285.12-103.14,284.63s-40.08-11.78-40.08-11.78,71.58-262,68.08-278.73-76.07-171.65-76.07-171.65Z" transform="translate(-687.3 -662.96)"/><path class="cls-21" d="M1686.47,1754.58l-26.68-45.87-45.52,2.38,7.44,15,38.57,28.2s17.4,6.63,18.37,6.53S1686.47,1754.58,1686.47,1754.58Z" transform="translate(-687.3 -662.96)"/><path class="cls-11" d="M1686.47,1754.58l6.62,11.89a6.27,6.27,0,0,1-8.38,8.64l-76.61-40.52a5.53,5.53,0,0,1-2.31-7.48l8.48-16C1656.7,1754.31,1676.94,1758.69,1686.47,1754.58Z" transform="translate(-687.3 -662.96)"/><path class="cls-21" d="M1679.47,1447.82S1646.56,1548,1625,1676.16l69.63-150.11Z" transform="translate(-687.3 -662.96)"/><path class="cls-22" d="M1646.43,932.84s39.77-19.88,30.89-76.11c-2.8-17.74-19.57-23.87-16.64-47.47s10.51-52.57-13.84-79.29-46.81-29.88-77.29-30.34c-31.77-.47-87.13,21.27-100.47,59.82s-62.58,5.42-114.56,41.82-36.35,94.33-22.85,124.2c41.57,92,117.63,106.92,209.61,84.17s16.47-39,17.31-40.47S1646.43,932.84,1646.43,932.84Z" transform="translate(-687.3 -662.96)"/><path class="cls-21" d="M1588.24,868.67l2.74-32.58-36.79,2.8-10.32,40.34c-1.26,4.78,14,7.14,18.46,9.22,5.22,2.42,10.09-10.81,18.18-11.86A8.92,8.92,0,0,0,1588.24,868.67Z" transform="translate(-687.3 -662.96)"/><g class="cls-23"><path class="cls-24" d="M1589.08,858.71l1.9-22.62-36.79,2.8-3.23,12.6C1558.61,855.59,1574,861,1589.08,858.71Z" transform="translate(-687.3 -662.96)"/></g><path class="cls-21" d="M1629.44,821.58a52.39,52.39,0,0,0,2.21-9.29,97.7,97.7,0,0,0,.41-25c-.16-1.62-.23-3.25-.27-4.88a53.11,53.11,0,1,0-105.18,11.68,11.47,11.47,0,0,0-10.29,1.24c-5.63,4-6.14,12.92-1.14,19.94s13.61,9.48,19.24,5.49a10.11,10.11,0,0,0,2-1.94c7.71,24.93,32.54,40.4,57.51,35A47.69,47.69,0,0,0,1623,834.32a23.35,23.35,0,0,0,1.43-2A46.25,46.25,0,0,0,1629.44,821.58Z" transform="translate(-687.3 -662.96)"/><path class="cls-25" d="M1580.07,793.55a4.64,4.64,0,1,1-5.52-3.54A4.63,4.63,0,0,1,1580.07,793.55Z" transform="translate(-687.3 -662.96)"/><path class="cls-25" d="M1619.53,787.65a4.64,4.64,0,1,1-5.52-3.54A4.64,4.64,0,0,1,1619.53,787.65Z" transform="translate(-687.3 -662.96)"/><path class="cls-22" d="M1583.58,783.4a43.84,43.84,0,0,0-6.93-.74,22.83,22.83,0,0,0-6.44.76,21.07,21.07,0,0,0-5.92,2.57l-.73.42c-.25.14-.45.33-.69.48l-1.41,1c-1,.68-1.79,1.49-2.85,2.18a20.28,20.28,0,0,1,1.64-3.3,16.51,16.51,0,0,1,2.43-2.86,15.08,15.08,0,0,1,6.67-3.72,15.78,15.78,0,0,1,7.63-.13A14.56,14.56,0,0,1,1583.58,783.4Z" transform="translate(-687.3 -662.96)"/><path class="cls-22" d="M1602,780.37a14.48,14.48,0,0,1,5.18-5.28,15.72,15.72,0,0,1,7.27-2.33,15.14,15.14,0,0,1,7.51,1.39,16.56,16.56,0,0,1,3.22,1.93,20,20,0,0,1,2.61,2.6c-1.22-.32-2.28-.81-3.39-1.15l-1.66-.49c-.27-.07-.53-.18-.8-.24l-.83-.15a21,21,0,0,0-6.43-.54,23,23,0,0,0-6.35,1.34A43.39,43.39,0,0,0,1602,780.37Z" transform="translate(-687.3 -662.96)"/><path class="cls-26" d="M1594.79,781.11a35.92,35.92,0,0,0,.54,10,27.7,27.7,0,0,0,1.41,4.92,13,13,0,0,0,3,4.65l.62.49.55.41a5.26,5.26,0,0,1,.73.57,3.66,3.66,0,0,1,1,1.4,4.46,4.46,0,0,1-.25,3.6c-1.19,2.57-3.91,4.48-6.89,5.9a11.3,11.3,0,0,0,9-4.67,6.81,6.81,0,0,0,.94-5.82,5,5,0,0,0-.68-1.44,6.1,6.1,0,0,0-1-1.22,7.56,7.56,0,0,0-1.18-1,4.45,4.45,0,0,1-.42-.34l-.35-.27a12.3,12.3,0,0,1-2.35-3.51,39.32,39.32,0,0,1-1.77-4.36C1596.68,787.42,1595.78,784.29,1594.79,781.11Z" transform="translate(-687.3 -662.96)"/><path class="cls-22" d="M1600.92,735.61s-24.5,51-74.31,58.52l-8.36-35.71s16.5-19,18.65-21.49,35.57-14,35.57-14l27.84,4Z" transform="translate(-687.3 -662.96)"/><path class="cls-21" d="M1521,909.61s-57.28,199.82-115.55,271.8l19.29,13.18s112-144.53,129.17-208.29S1521,909.61,1521,909.61Z" transform="translate(-687.3 -662.96)"/><path class="cls-11" d="M1537.41,865.47s152.22-3.24,124.45,125.29c0,0-12.35,44.22-10.29,58.61s21.6,53.26,19.54,89.87,113.13,94.18,122.39,130.17c0,0-40.11,23.65-56.56,44.21s-54.51,108-173.82,111.05-167.64,9.25-167.64,9.25,5.14-43.18,59.65-106.93,42.17-240.61,90.51-283.79C1545.64,1043.2,1485,874.88,1537.41,865.47Z" transform="translate(-687.3 -662.96)"/><path class="cls-27" d="M1455.13,1327c54.51-63.75,42.17-240.61,90.51-283.79,0,0-53.31-147.89-16.8-174.17,0,0,49.71,141.27,72.34,161.83,0,0-41.75,84.32-44,125.44s30.65,97.2,13.16,130.35-32.82,150.72,101.86,102.73c-25.63,18.91-60.66,34-109.06,35.29-119.3,3.08-167.64,9.25-167.64,9.25S1400.62,1390.74,1455.13,1327Z" transform="translate(-687.3 -662.96)"/><path class="cls-10" d="M1539.85,1048.52a4,4,0,0,1-3.18-4.78h0a4,4,0,0,1,4.75-3.16c55.69,10.73,96.45,5.5,108.63,3.43a4.06,4.06,0,0,1,4.64,3.09v0a4,4,0,0,1-3.24,4.89,252.89,252.89,0,0,1-42.93,3.29A363.34,363.34,0,0,1,1539.85,1048.52Zm114-5.21h0l.9,4Z" transform="translate(-687.3 -662.96)"/><path class="cls-28" d="M1575,821.75c1.46,7,8.12,12.21,16.1,12.19s14.59-5.32,16-12.29Z" transform="translate(-687.3 -662.96)"/><path class="cls-21" d="M1739.8,767.1a1.19,1.19,0,0,0,1.91-.88c.44-7.34,2-30.44,3.84-30.76,2.26-.37,1.41,20.3,3.37,21.09s2.29-19.4,4.76-19.41,1.56,18.39,2.61,18.75,3.8-17.18,5.25-18.06.79,18.2,1.93,19,6-12.22,7.14-11.94,2,.28-.5,32.7l-1.53,12.72-6.85,9.71-13.91-3.31s-22.53-35.25-21.84-36.83S1728.07,758.37,1739.8,767.1Z" transform="translate(-687.3 -662.96)"/><path class="cls-21" d="M1746,793.9s-35.23,123.76-43.11,127.39S1624.07,906.9,1595,893s-62.67-24.07-71.34-8.92,28.59,84.12,162.84,87.94c0,0,52.08,9.43,66.82-57a692.75,692.75,0,0,0,15.48-126.16Z" transform="translate(-687.3 -662.96)"/></g></g></svg>